<?xml version="1.0" standalone="no"?>
<!DOCTYPE svg PUBLIC "-//W3C//DTD SVG 20010904//EN"
 "http://www.w3.org/TR/2001/REC-SVG-20010904/DTD/svg10.dtd">
<svg version="1.0" xmlns="http://www.w3.org/2000/svg"
 width="48.000000pt" height="48.000000pt" viewBox="0 0 48.000000 48.000000"
 preserveAspectRatio="xMidYMid meet">

<g transform="translate(0.000000,48.000000) scale(0.100000,-0.100000)"
fill="#000000" stroke="none">
<path d="M210 345 l0 -75 -75 0 c-73 0 -75 -1 -75 -25 0 -24 2 -25 75 -25 l75
0 0 -75 c0 -73 1 -75 25 -75 24 0 25 2 25 75 l0 75 75 0 c73 0 75 1 75 25 0
24 -2 25 -75 25 l-75 0 0 75 c0 73 -1 75 -25 75 -24 0 -25 -2 -25 -75z"/>
</g>
</svg>
